
nColumns=19
nRows=41
DataType=double
version=3
OpenSimVersion=4.4-2022-10-11-798caa840
endheader
time	ground_force_calcn_r_vx	ground_force_calcn_r_vy	ground_force_calcn_r_vz	ground_force_calcn_r_px	ground_force_calcn_r_py	ground_force_calcn_r_pz	ground_force_calcn_r_mx	ground_force_calcn_r_my	ground_force_calcn_r_mz	ground_force_calcn_l_vx	ground_force_calcn_l_vy	ground_force_calcn_l_vz	ground_force_calcn_l_px	ground_force_calcn_l_py	ground_force_calcn_l_pz	ground_force_calcn_l_mx	ground_force_calcn_l_my	ground_force_calcn_l_mz
3.08	-2.80862	2.1923	0.162814	1.16275	0	-0.429297	1.07044e-08	-8.355430000000001e-09	-6.20528e-10	115.926	828.207	34.7803	0.671062	0	-0.549798	-0.0387419	-0.276784	-0.0116235
3.085	-4.03682	3.5212	0.116062	1.16606	0	-0.429302	5.59417e-08	-4.87963e-08	-1.60837e-09	121.882	816.484	30.3181	0.672709	0	-0.548542	-0.095332	-0.638626	-0.0237138
3.09	-6.20736	5.98288	-0.188806	1.16856	0	-0.429121	4.06337e-07	-3.91642e-07	1.23593e-08	127.269	808.009	30.5343	0.674376	0	-0.54725	-0.143408	-0.910476	-0.0344064
3.095	-10.4744	11.0029	-1.27442	1.17028	0	-0.428827	2.76124e-06	-2.90054e-06	3.35958e-07	132.279	800.004	32.1367	0.676087	0	-0.545903	-0.160462	-0.970452	-0.0389838
3.1	-14.6486	19.3524	-4.25156	1.17106	0	-0.428552	2.36377e-05	-3.1228e-05	6.86054e-06	137.247	790.823	32.7749	0.67784	0	-0.544489	-0.146082	-0.841726	-0.0348845
3.105	-7.35158	30.3289	-5.32816	1.17121	0	-0.428582	5.8088e-05	-0.000239642	4.21001e-05	142.346	780.954	33.1891	0.679633	0	-0.542995	-0.113675	-0.623658	-0.0265043
3.11	0.125811	46.6908	-4.03483	1.17184	0	-0.428586	-2.66333e-06	-0.0009884130000000001	8.54145e-05	147.537	770.034	33.1973	0.6815	0	-0.541391	-0.07646409999999999	-0.399085	-0.0172051
3.115	4.18482	80.1123	-0.83575	1.17262	0	-0.428494	-0.000181849	-0.00348124	3.63171e-05	152.379	757.068	32.155	0.6834249999999999	0	-0.539758	-0.0409795	-0.203599	-0.008647490000000001
3.12	2.44056	133.015	4.82988	1.17346	0	-0.42829	-0.000216745	-0.011813	-0.000428939	157.031	741.67	30.7104	0.685368	0	-0.538189	-0.00636685	-0.0300711	-0.00124516
3.125	-4.4205	191.3	10.7737	1.17464	0	-0.427889	0.000886312	-0.0383557	-0.00216013	161.045	723.66	28.6586	0.687286	0	-0.5367690000000001	0.0295097	0.132602	0.00525135
3.13	-13.6495	244.815	16.3571	1.17648	0	-0.427111	0.00570123	-0.102257	-0.0068322	164.147	703.1799999999999	26.0774	0.689125	0	-0.535599	0.0670343	0.287163	0.0106495
3.135	-23.8639	290.001	21.0854	1.17909	0	-0.425917	0.0164564	-0.199983	-0.0145404	166.181	680.611	23.3789	0.69084	0	-0.534751	0.105957	0.433958	0.0149064
3.14	-37.33	324.473	23.0321	1.18221	0	-0.42455	0.0364764	-0.317054	-0.0225055	166.773	656.006	20.61	0.692445	0	-0.534237	0.143782	0.565573	0.0177688
3.145	-51.4643	350.709	22.4813	1.18681	0	-0.422885	0.0730644	-0.497906	-0.031917	166.198	629.024	17.8184	0.694043	0	-0.533971	0.177114	0.670338	0.0189887
3.15	-64.8366	380.797	20.213	1.19545	0	-0.420341	0.131682	-0.7733910000000001	-0.0410522	164.269	598.829	15.0118	0.695749	0	-0.533879	0.202957	0.739865	0.0185474
3.155	-79.24299999999999	418.477	16.5119	1.20784	0	-0.417914	0.15847	-0.8368679999999999	-0.0330204	160.582	564.428	12.159	0.697641	0	-0.533957	0.220278	0.77425	0.0166791
3.16	-91.29730000000001	450.758	12.8364	1.22086	0	-0.416722	0.09998020000000001	-0.493628	-0.0140572	155.273	526.062	9.07136	0.69977	0	-0.534234	0.230459	0.78079	0.0134639
3.165	-100.23	472.841	10.7305	1.23407	0	-0.416528	0.0476724	-0.224896	-0.00510373	149.39	484.218	5.68346	0.7022350000000001	0	-0.534703	0.233779	0.757746	0.008893969999999999
3.17	-108.482	493.842	9.43878	1.24838	0	-0.417271	0.08117000000000001	-0.369509	-0.0070624	142.361	436.421	2.08782	0.705298	0	-0.5353520000000001	0.223877	0.686315	0.0032833
3.175	-114.857	509.597	8.568289999999999	1.2613	0	-0.418274	0.176647	-0.783748	-0.0131778	129.78	373.21	-1.01937	0.709656	0	-0.536368	0.186835	0.537282	-0.00146751
3.18	-120.033	520.53	7.25213	1.27161	0	-0.419042	0.266966	-1.15771	-0.0161295	113.911	295.108	-3.96203	0.716425	0	-0.538088	0.118699	0.307514	-0.00412859
3.185	-124.883	531.929	4.33402	1.27934	0	-0.419457	0.325685	-1.38723	-0.0113028	99.29859999999999	225.002	-6.43909	0.725472	0	-0.540557	0.0387803	0.0878729	-0.00251474
3.19	-129.254	542.268	-0.63916	1.28503	0	-0.419511	0.382204	-1.60349	0.00189	84.119	185.346	-8.15639	0.731515	0	-0.542509	-0.00139474	-0.00307315	0.000135238
3.195	-133.103	551.985	-7.01085	1.2893	0	-0.41924	0.458933	-1.90322	0.0241731	73.3848	170.187	-9.62595	0.731718	0	-0.542547	-1.21026e-05	-2.80671e-05	1.58751e-06
3.2	-136.694	565.119	-14.1805	1.29256	0	-0.418765	0.516997	-2.13737	0.053633	71.0866	161.095	-10.2057	0.7323730000000001	0	-0.542627	-1.28769e-06	-2.91814e-06	1.8487e-07
3.205	-140.179	584.116	-20.8541	1.29522	0	-0.418172	0.538094	-2.2422	0.080051	66.8771	158.017	-10.7663	0.7329870000000001	0	-0.5427070000000001	-7.24146e-07	-1.71101e-06	1.16577e-07
3.21	-142.943	607.692	-25.9519	1.29755	0	-0.417518	0.531164	-2.25812	0.0964347	55.1362	150.7	-11.5455	0.73358	0	-0.542804	-1.2089e-07	-3.3042e-07	2.53144e-08
3.215	-145.024	634.121	-29.3741	1.29976	0	-0.416874	0.506429	-2.21438	0.102576	43.4115	134.701	-11.7473	0.734376	0	-0.542907	-1.72871e-09	-5.36399e-09	4.67794e-10
3.22	-146.201	662.054	-31.4309	1.30194	0	-0.416305	0.480846	-2.17745	0.103374	33.2842	111.875	-11.0855	0.735382	0	-0.543002	-3.31411e-12	-1.11394e-11	1.10378e-12
3.225	-146.52	690.27	-32.4479	1.30399	0	-0.415818	0.454713	-2.14219	0.100699	22.8587	84.76000000000001	-11.2116	0.736523	0	-0.543133	-3.67047e-15	-1.36101e-14	1.80027e-15
3.23	-145.67	719.264	-33.5584	1.30556	0	-0.415349	0.38773	-1.91447	0.0893225	9.38316	55.8677	-12.3092	0.737684	0	-0.543305	-0	-0	0
3.235	-144.05	748.0170000000001	-34.9122	1.3065	0	-0.41484	0.272704	-1.41609	0.0660931	-2.5497	28.7295	-10.9545	0.738905	0	-0.543409	1.468e-16	-1.65411e-15	6.30712e-16
3.24	-142.041	773.086	-36.2426	1.30703	0	-0.414303	0.16166	-0.879866	0.0412485	-4.04897	5.65411	-3.16179	0.740513	0	-0.543129	-1.13036e-16	1.57846e-16	-8.826800000000001e-17
3.245	-139.387	793.1950000000001	-37.4492	1.30745	0	-0.413766	0.08986860000000001	-0.511406	0.0241451	0.00541069	-0.00547205	0.00174489	0.7444499999999999	0	-0.542133	6.88048e-19	-6.95851e-19	2.21888e-19
3.25	-136.427	808.424	-38.0568	1.30799	0	-0.413278	0.0572212	-0.339076	0.0159621	2.68423e-05	-2.33922e-05	4.26526e-06	0.750224	0	-0.541536	1.16274e-21	-1.01329e-21	1.8476e-22
3.255	-133.234	819.147	-37.8014	1.30879	0	-0.412878	0.0522446	-0.321209	0.0148229	1.17516e-05	-9.43517e-06	1.04098e-06	0.757263	0	-0.541268	-6.04537e-22	4.85372e-22	-5.35509e-23
3.26	-129.566	827.2329999999999	-37.1493	1.3098	0	-0.412543	0.0474449	-0.302919	0.0136035	1.4855e-06	-1.0979e-06	6.70854e-08	0.7654570000000001	0	-0.541229	7.8075e-23	-5.77036e-23	3.52587e-24
3.265	-125.657	833.4640000000001	-36.4473	1.31093	0	-0.412219	0.0334573	-0.221918	0.00970445	8.23968e-08	-5.59843e-08	1.06079e-09	0.775016	0	-0.541401	-6.05488e-26	4.11397e-26	-7.79517e-28
3.27	-121.556	837.255	-36.0284	1.31215	0	-0.411873	0.0199623	-0.137497	0.00591669	1.24446e-08	-7.86335e-09	-1.3603e-10	0.785876	0	-0.541783	2.09775e-24	-1.3255e-24	-2.29302e-26
3.275	-117.333	838.5650000000001	-36.1773	1.3135	0	-0.411512	0.0044808	-0.0320238	0.00138157	6.25224e-09	-3.70842e-09	-1.75948e-10	0.797896	0	-0.542351	4.62305e-24	-2.7421e-24	-1.301e-25
3.28	-113.122	837.615	-36.8022	1.31499	0	-0.41116	-0.016959	0.125573	-0.00551727	5.14439e-09	-2.87449e-09	-2.11296e-10	0.811043	0	-0.543088	1.31543e-23	-7.35013e-24	-5.4029e-25
